<?xml version="1.0" encoding="utf-8"?>

<!DOCTYPE svg PUBLIC "-//W3C//DTD SVG 1.1//EN" "http://www.w3.org/Graphics/SVG/1.1/DTD/svg11.dtd">
<!-- Uploaded to: SVG Repo, www.svgrepo.com, Generator: SVG Repo Mixer Tools -->
<svg height="800px" width="800px" version="1.1" id="_x32_" xmlns="http://www.w3.org/2000/svg" xmlns:xlink="http://www.w3.org/1999/xlink" 
	 viewBox="0 0 512 512"  xml:space="preserve">
<style type="text/css">
	.st0{fill:#000000;}
</style>
<g>
	<path class="st0" d="M504.954,148.484c-9.379-9.401-24.618-9.379-34.012,0.023l-84.051,84.029c-2.596-4.276-5.462-8.749-8.532-13.4
		L484.035,113.46c9.394-9.394,9.349-24.649-0.015-34.013c-9.394-9.386-24.618-9.416-34.012-0.015L351.4,178.033
		c-2.866-4.465-5.755-8.892-8.674-13.228L445.191,62.339c9.349-9.356,9.371-24.618,0.008-33.99
		c-9.44-9.431-24.656-9.379-34.028-0.014l-98.314,98.315c-3.865-3.857-7.781-7.129-11.833-10.07l68.662-68.662
		c9.364-9.371,9.327-24.634-0.037-33.99c-9.402-9.41-24.618-9.402-33.99-0.031c0,0-118.326,118.087-120.892,120.751
		c-18.398,14.481-14.752-48.397-33.652-81.426c-20.004-34.988-53.094-15.817-47.481,32.504
		c9.387,81.718-12.996,182.794-42.994,212.792L0,389.159l115.971,115.97l82.896-82.889c27.89-27.882,75.678-9.312,150.042-83.668
		l156.046-156.054C514.356,173.118,514.341,157.856,504.954,148.484z M77.929,418.512c-6.828,6.835-17.903,6.835-24.738,0.008
		c-6.836-6.844-6.836-17.918,0-24.753c6.835-6.828,17.91-6.82,24.738,0C84.772,400.602,84.772,411.676,77.929,418.512z
		 M88.643,367.197c-3.954,3.946-10.362,3.946-14.323,0c-3.962-3.969-3.962-10.369,0-14.338c3.962-3.955,10.37-3.955,14.323,0
		C92.598,356.828,92.598,363.228,88.643,367.197z M133.753,452.013c-5.763,5.756-15.082,5.756-20.837,0
		c-5.755-5.762-5.755-15.082,0-20.844c5.755-5.74,15.082-5.74,20.837,0C139.501,436.932,139.493,446.251,133.753,452.013z
		 M141.632,404.743c-5.762,5.755-15.082,5.755-20.844,0.008c-5.755-5.762-5.755-15.089,0-20.837c5.762-5.762,15.082-5.762,20.844,0
		C147.386,389.662,147.386,398.989,141.632,404.743z M151.67,343.884c-7.676,7.668-20.123,7.668-27.792,0
		c-7.668-7.669-7.668-20.101,0-27.777c7.669-7.669,20.116-7.669,27.792,0C159.339,323.783,159.339,336.216,151.67,343.884z
		 M190.883,389.676c-3.947,3.955-10.362,3.955-14.324,0c-3.962-3.962-3.954-10.369,0-14.331c3.962-3.954,10.37-3.947,14.324,0
		C194.837,379.307,194.837,385.715,190.883,389.676z"/>
</g>
</svg>