<svg width="106" height="104" viewBox="0 0 106 104" fill="none" xmlns="http://www.w3.org/2000/svg">
<g filter="url(#filter0_d_18_56)">
<path d="M65.0696 11.7056L99.019 49.3755C100.716 51.2589 102.393 53.2323 103.241 55.6217C106.127 63.7543 101.898 72.3325 97.1707 78.3083C94.1151 82.1714 90.6436 85.8718 86.5468 88.6061C81.4541 92.0052 74.0821 95.6667 68.5467 98.1753C66.2421 99.2197 63.8373 100.031 61.3488 100.488C45.7002 103.366 29.9002 101.25 23.5696 99.7056C11.1876 95.1066 4.93291 76.0885 2.7302 64.0289C2.20676 61.1631 1.50135 58.3214 1.17934 55.4261C-0.0702362 44.1909 5.44944 28.6587 10.3115 18.1905C12.3386 13.8259 15.2739 9.88296 19.2009 7.10128C39.7675 -7.46685 58.039 3.60509 65.0696 11.7056Z" fill="#CEEBFB"/>
</g>
<g filter="url(#filter1_d_18_56)">
<path d="M18.9544 61.9761C27.7544 80.7761 49.6211 90.1428 59.4544 92.4761C78.3585 81.8633 86.6529 62.0388 89.4106 49.0188C90.3898 44.3955 90.0352 39.5541 88.3417 35.1421C79.1592 11.2181 60.1334 20.8335 50.4544 28.9761C12.4544 18.9761 13.1211 46.4761 18.9544 61.9761Z" fill="#FFB3CB"/>
<path d="M22.9544 59.9761C31.7544 78.7761 53.6211 88.1428 63.4544 90.4761C82.3585 79.8633 90.6529 60.0388 93.4106 47.0188C94.3898 42.3955 94.0352 37.5541 92.3417 33.1421C83.1592 9.2181 64.1334 18.8335 54.4544 26.9761C16.4544 16.9761 17.1211 44.4761 22.9544 59.9761Z" fill="#FF4270"/>
</g>
<path d="M25.3252 66.8252L7.98032 69.5638C6.95167 69.7262 5.84483 69.3731 5.40487 68.4292C4.6188 66.7427 5.10978 65.3141 5.75656 64.4369C6.08164 63.9961 6.61148 63.7818 7.15305 63.6997L22.8252 61.3252L33.0307 50.6557C33.5226 50.1414 34.2508 49.9273 34.9428 50.0934L46.3252 52.8252L48.2494 35.026C48.2984 34.5724 48.4919 34.1352 48.8597 33.8653C50.9501 32.3308 53.685 33.1374 55.2576 33.9859C55.6363 34.1901 55.9033 34.544 56.048 34.9491L65.8252 62.3252L69.1813 55.1334C69.2765 54.9294 69.334 54.7098 69.367 54.4871C69.9205 50.7499 73.192 49.5014 74.3252 49.8252L91.3252 47.8252C95.3252 49.8252 92.9918 52.6585 91.3252 53.8252L74.3252 56.3252L68.3252 71.8252C66.7252 75.8252 63.3252 73.4918 61.8252 71.8252L52.8252 45.3252L51.3252 58.8252C51.7252 62.4252 47.4918 60.9918 45.3252 59.8252L37.0259 56.7676C36.2939 56.4979 35.4719 56.6784 34.9203 57.23L25.3252 66.8252Z" fill="#4DBDE5"/>
<circle cx="94" cy="50" r="7" fill="#D9D9D9"/>
<circle cx="94" cy="50" r="7" fill="#FDC345"/>
<defs>
<filter id="filter0_d_18_56" x="0" y="0" width="105.184" height="103.914" filterUnits="userSpaceOnUse" color-interpolation-filters="sRGB">
<feFlood flood-opacity="0" result="BackgroundImageFix"/>
<feColorMatrix in="SourceAlpha" type="matrix" values="0 0 0 0 0 0 0 0 0 0 0 0 0 0 0 0 0 0 127 0" result="hardAlpha"/>
<feOffset dy="1"/>
<feGaussianBlur stdDeviation="0.5"/>
<feComposite in2="hardAlpha" operator="out"/>
<feColorMatrix type="matrix" values="0 0 0 0 0 0 0 0 0 0 0 0 0 0 0 0 0 0 0.25 0"/>
<feBlend mode="normal" in2="BackgroundImageFix" result="effect1_dropShadow_18_56"/>
<feBlend mode="normal" in="SourceGraphic" in2="effect1_dropShadow_18_56" result="shape"/>
</filter>
<filter id="filter1_d_18_56" x="14" y="18" width="81.9495" height="78.4761" filterUnits="userSpaceOnUse" color-interpolation-filters="sRGB">
<feFlood flood-opacity="0" result="BackgroundImageFix"/>
<feColorMatrix in="SourceAlpha" type="matrix" values="0 0 0 0 0 0 0 0 0 0 0 0 0 0 0 0 0 0 127 0" result="hardAlpha"/>
<feOffset dy="2"/>
<feGaussianBlur stdDeviation="1"/>
<feComposite in2="hardAlpha" operator="out"/>
<feColorMatrix type="matrix" values="0 0 0 0 0 0 0 0 0 0 0 0 0 0 0 0 0 0 0.25 0"/>
<feBlend mode="normal" in2="BackgroundImageFix" result="effect1_dropShadow_18_56"/>
<feBlend mode="normal" in="SourceGraphic" in2="effect1_dropShadow_18_56" result="shape"/>
</filter>
</defs>
</svg>
