<svg width="717" height="717" viewBox="0 0 717 717" fill="none" xmlns="http://www.w3.org/2000/svg">
<path d="M458.333 358.333H25M25 358.333L141.667 258.333M25 358.333L141.667 458.333" stroke="#E7034E" stroke-width="50" stroke-linecap="round" stroke-linejoin="round"/>
<path d="M258.398 191.667C258.802 119.166 262.017 79.902 287.63 54.2893C316.92 25 364.06 25 458.34 25H491.673C585.953 25 633.097 25 662.383 54.2893C691.673 83.5787 691.673 130.719 691.673 225V491.667C691.673 585.947 691.673 633.087 662.383 662.377C636.77 687.99 597.507 691.207 525 691.61M258.398 525C258.802 597.5 262.017 636.763 287.63 662.377C309.007 683.753 339.89 689.53 391.667 691.09" stroke="#E7034E" stroke-width="50" stroke-linecap="round"/>
</svg>
