<svg width="64" height="109" viewBox="0 0 64 109" fill="none" xmlns="http://www.w3.org/2000/svg">
<path d="M0 97.6562C7.41176 104.256 22.6471 107.969 29.3382 109L35 85.2812C23.0588 86.1062 13.8971 79.4375 10.8088 76C4.63235 92.5 1.02941 97.3125 0 97.6562Z" fill="#163F75"/>
<path d="M11 77.5638C16.2 84.7638 29.1667 86.2304 35 86.0638C38.6 78.0638 41.5 71.0638 42.5 68.5638C45 68.0638 47 62.0638 47.5 63.0638C47.9 63.8638 55.6667 47.0638 59.5 38.5638C57.8333 39.3971 55.7 40.3638 60.5 37.5638C65.3 34.7638 62 30.5 60.5 29.5L62 28.0638C66.4 24.8638 61.3333 20.3971 59.5 19.5638H62C66.5 15.0638 61.5 12.5638 62 13.0638C62.4 13.4638 40.6667 25.2304 29.5 31.0638C27.1 28.2638 30.5 20.5638 31.5 17.0638C33.5 8.26377 29.6667 8.3971 27.5 9.56377C28.6064 14.727 22.0054 22.8371 17.9644 27.0754C17.3391 27.7312 16.92 28.5275 16.8792 29.4328C16.5944 35.7452 17 60.2623 17 62.0638C17 63.6638 13 73.0638 11 77.5638Z" fill="#C76862"/>
<path d="M30.0292 57.5L33.5292 5C33.7426 1.8 35.9515 1 37.0293 1L59.0293 2.5C61.4293 2.5 61.696 5.16667 61.5293 6.5L57.5293 57.5C58.3293 62.3 54.5293 63 54.5293 63L33.5292 61.5C30.3292 62.7 29.8626 59.3333 30.0292 57.5Z" fill="#FFFDFF" stroke="black" stroke-width="2"/>
<path d="M42 3L53 4" stroke="black" stroke-width="2"/>
<circle cx="44" cy="58" r="2" fill="#D9D9D9"/>
<rect x="36.0598" y="9" width="22" height="13" transform="rotate(4 36.0598 9)" fill="#D9D9D9"/>
<rect x="36.0598" y="9" width="22" height="13" transform="rotate(4 36.0598 9)" fill="#1F91DA"/>
<rect x="35.296" y="19.9231" width="7" height="6" transform="rotate(-41 35.296 19.9231)" fill="#D9D9D9"/>
<rect x="35.296" y="19.9231" width="7" height="6" transform="rotate(-41 35.296 19.9231)" fill="#1F91DA"/>
<path d="M40.033 11.1894L56.982 12.3746" stroke="#FFFBFF" stroke-width="2"/>
<path d="M40.0151 14.564L52.4847 15.436" stroke="#FFFBFF" stroke-width="2"/>
<path d="M27 14.7048C27.1667 12.3714 27.9 8.00477 29.5 9.20477C29.8333 11.0381 29.8 14.7048 27 14.7048Z" fill="#8A6E7A"/>
</svg>
